<?xml version="1.0" encoding="utf-8"?><svg xmlns="http://www.w3.org/2000/svg" xmlns:xlink="http://www.w3.org/1999/xlink"><symbol viewBox="0 0 16 16" aria-labelledby="aicon-facebook-desc aicon-facebook-title" id="icon-facebook"><title id="aicon-facebook-title">Facebook</title><desc id="aicon-facebook-desc">Facebook's f.</desc><path d="M9.5 3H12V0H9.5C7.57 0 6 1.57 6 3.5V5H4v3h2v8h3V8h2.5l.5-3H9V3.5c0-.271.229-.5.5-.5z"/></symbol><symbol viewBox="0 0 100 100" id="icon-line"><path d="M88.9 56.1H11.1C7.6 56.1 5 53.5 5 50s2.6-6.1 6.1-6.1h77.8c3.5 0 6.1 2.6 6.1 6.1s-2.6 6.1-6.1 6.1z"/></symbol><symbol viewBox="0 0 16 16" aria-labelledby="cicon-twitter-desc cicon-twitter-title" id="icon-twitter"><title id="cicon-twitter-title">Twitter</title><desc id="cicon-twitter-desc">The twitter bird.</desc><path d="M16 3.538a6.461 6.461 0 0 1-1.884.516 3.301 3.301 0 0 0 1.444-1.816 6.607 6.607 0 0 1-2.084.797 3.28 3.28 0 0 0-2.397-1.034 3.28 3.28 0 0 0-3.197 4.028 9.321 9.321 0 0 1-6.766-3.431 3.284 3.284 0 0 0 1.015 4.381A3.301 3.301 0 0 1 .643 6.57v.041A3.283 3.283 0 0 0 3.277 9.83a3.291 3.291 0 0 1-1.485.057 3.293 3.293 0 0 0 3.066 2.281 6.586 6.586 0 0 1-4.862 1.359 9.286 9.286 0 0 0 5.034 1.475c6.037 0 9.341-5.003 9.341-9.341 0-.144-.003-.284-.009-.425a6.59 6.59 0 0 0 1.637-1.697z"/></symbol></svg>